<?xml version="1.0" encoding="UTF-8"?>
<svg xmlns="http://www.w3.org/2000/svg" viewBox="0 0 458.71 467.84">
  <defs>
    <style>
      .cls-1, .cls-2, .cls-3, .cls-4, .cls-5, .cls-6, .cls-7, .cls-8, .cls-9, .cls-10, .cls-11, .cls-12, .cls-13, .cls-14, .cls-15, .cls-16 {
        stroke: #263238;
      }

      .cls-1, .cls-2, .cls-4, .cls-8, .cls-11, .cls-14, .cls-15, .cls-16 {
        stroke-miterlimit: 10;
      }

      .cls-1, .cls-17, .cls-6, .cls-13 {
        fill: #263238;
      }

      .cls-1, .cls-4, .cls-5, .cls-7, .cls-8, .cls-9, .cls-10, .cls-11, .cls-12, .cls-13, .cls-14, .cls-16 {
        stroke-linecap: round;
      }

      .cls-2, .cls-4, .cls-10, .cls-12, .cls-14, .cls-15 {
        fill: none;
      }

      .cls-18, .cls-3, .cls-5, .cls-8, .cls-9, .cls-19 {
        fill: #fff;
      }

      .cls-3, .cls-5, .cls-6, .cls-7, .cls-9, .cls-10, .cls-12, .cls-13 {
        stroke-linejoin: round;
      }

      .cls-4 {
        stroke-width: 2px;
      }

      .cls-5, .cls-12 {
        stroke-width: .75px;
      }

      .cls-20, .cls-7, .cls-11 {
        fill: #92e3a9;
      }

      .cls-19 {
        opacity: .7;
      }

      .cls-15 {
        stroke-width: 4px;
      }

      .cls-16 {
        fill: #787878;
      }
    </style>
  </defs>
  <g id="Background_Simple" data-name="Background Simple">
    <g>
      <path class="cls-20" d="M191.57,9.31c-35.33,9.57-68.41,27.28-101.25,43.56C42.09,76.79-1.52,157.5,19.5,232.38c21.02,74.88,75.7,77.52,114.85,106.33,39.14,28.81,70.51,97.83,112.61,114.42,64.83,25.55,113.86,23.14,155.44-50.39,31.56-55.8,2.42-127.13,2.56-187.03.09-39.73,12.39-81.12,3.31-120.89-11.17-48.89-66.73-74.36-111.06-85.73-20.07-5.15-40.88-7.53-61.59-6.75-15.14.57-29.78,3.11-44.05,6.97Z"/>
      <path class="cls-19" d="M191.57,9.31c-35.33,9.57-68.41,27.28-101.25,43.56C42.09,76.79-1.52,157.5,19.5,232.38c21.02,74.88,75.7,77.52,114.85,106.33,39.14,28.81,70.51,97.83,112.61,114.42,64.83,25.55,113.86,23.14,155.44-50.39,31.56-55.8,2.42-127.13,2.56-187.03.09-39.73,12.39-81.12,3.31-120.89-11.17-48.89-66.73-74.36-111.06-85.73-20.07-5.15-40.88-7.53-61.59-6.75-15.14.57-29.78,3.11-44.05,6.97Z"/>
    </g>
  </g>
  <g id="Floor">
    <ellipse class="cls-1" cx="229.34" cy="443.34" rx="228.84" ry="12.09"/>
  </g>
  <g id="Graduation_Cap" data-name="Graduation Cap">
    <g>
      <polygon class="cls-7" points="400.26 237.01 351.2 268.59 407.65 284.05 456.71 255.82 400.26 237.01"/>
      <path class="cls-7" d="M404.34,252c-13.02,0-23.58,8.86-23.58,19.78v11.23c0-10.93,10.56-19.78,23.58-19.78s23.58,8.86,23.58,19.78v-11.23c0-10.93-10.56-19.78-23.58-19.78Z"/>
      <ellipse class="cls-7" cx="404.34" cy="283.01" rx="23.58" ry="19.78"/>
      <path class="cls-7" d="M404.34,263.23c-10.54,0-19.47,5.8-22.48,13.81,3.02,8.01,11.94,13.81,22.48,13.81s19.47-5.8,22.48-13.81c-3.02-8.01-11.94-13.81-22.48-13.81Z"/>
      <g>
        <line class="cls-7" x1="456.39" y1="256.28" x2="456.39" y2="294.51"/>
        <path class="cls-7" d="M458.08,300.62c0,3.83-.75,6.94-1.67,6.94s-1.67-3.11-1.67-6.94.75-6.94,1.67-6.94,1.67,3.11,1.67,6.94Z"/>
      </g>
    </g>
  </g>
  <g id="DNA">
    <path class="cls-7" d="M365.31,190.61c6.11,3.55,13.68,4.63,22.18,3.11,6.3-1.13,11.21-3.33,12.76-4.08.02,0,.07-.04.15-.07.04-.02.08-.04.11-.06.04-.02.07-.03.11-.06.08-.04.13-.07.15-.08,1.54-.78,6.26-3.35,10.98-7.68,6.37-5.84,10.1-12.52,10.97-19.53,6.11,3.55,13.68,4.63,22.18,3.11,7.51-1.35,13.05-4.22,13.29-4.34l-1.85-3.55c-.07.04-2.41,1.23-6.02,2.38l-12.86-25.97c3.1-2.17,5.47-3.31,5.54-3.34l-1.7-3.62c-.24.11-5.88,2.79-11.51,7.94-6.37,5.83-10.1,12.52-10.97,19.53-6.11-3.55-13.68-4.63-22.18-3.11-6.32,1.14-11.24,3.35-12.78,4.09-.02.01-.07.03-.13.06-.04.02-.08.04-.11.06-.04.02-.07.03-.11.06-.06.03-.11.06-.13.07-1.52.77-6.26,3.35-11,7.69-6.37,5.83-10.1,12.52-10.97,19.53-6.11-3.55-13.68-4.63-22.18-3.11-7.51,1.35-13.05,4.22-13.29,4.34l1.85,3.55c.06-.03,2-1.02,5.04-2.07l12.99,26.23c-2.68,1.79-4.64,2.74-4.7,2.77l1.7,3.62c.24-.11,5.88-2.79,11.5-7.94,6.37-5.84,10.1-12.52,10.97-19.53ZM378.87,163.09l12.66,25.55c-2.62.76-5.75,1.43-9.08,1.65l-10.39-20.98c2.2-2.52,4.62-4.6,6.81-6.22ZM385.41,158.99c.45-.22,1.78-.84,3.69-1.55l13.12,26.49c-1.82,1.15-3.17,1.84-3.54,2.03-.62.3-2.38,1.12-4.85,1.96l-12.98-26.22c2.27-1.52,4.03-2.44,4.57-2.71ZM404.21,182.59l-12.84-25.93c2.84-.9,6.45-1.77,10.34-2.03l10.38,20.97c-2.56,2.94-5.44,5.28-7.88,6.99ZM448.02,160.45c-2.31.62-4.97,1.14-7.77,1.36l-10.51-21.22c1.87-2.1,3.9-3.9,5.79-5.36l12.49,25.22ZM428.08,142.6l9.57,19.31c-5.03.01-10.37-1.13-15-4.6.05-5.79,2.38-10.72,5.43-14.72ZM418.93,159.16c-.05,5.64-2.25,10.47-5.19,14.41l-9.41-19.01c4.92.05,10.09,1.22,14.61,4.6ZM370.41,171.35l9.42,19.01c-4.91-.05-10.09-1.22-14.61-4.61.05-5.64,2.25-10.46,5.19-14.4ZM361.51,187.6c-.05,5.6-2.23,10.4-5.15,14.33l-9.38-18.93c4.89.06,10.03,1.24,14.52,4.6ZM334.99,184.77c2.68-.79,5.92-1.49,9.37-1.71l10.36,20.91c-2.27,2.61-4.79,4.76-7.04,6.42l-12.69-25.62Z"/>
  </g>
  <g id="Atom">
    <g>
      <path class="cls-17" d="M418.82,80.34c-2.62,0-4.75,2.13-4.75,4.75s2.13,4.75,4.75,4.75,4.75-2.13,4.75-4.75-2.13-4.75-4.75-4.75Z"/>
      <path class="cls-17" d="M445.52,92.06c0-1.35-1.1-2.45-2.45-2.45-.28,0-.54.06-.79.14-.68-1.53-1.5-3.09-2.43-4.65,5.66-9.55,6.91-18.77,2.32-23.36-2.84-2.84-7.43-3.44-12.79-2.16-2.88-4.69-6.56-7.51-10.57-7.51-1.8,0-3.53.58-5.16,1.63-.45-.5-1.09-.82-1.82-.82-1.35,0-2.45,1.1-2.45,2.45,0,.65.26,1.24.67,1.68-.64.78-1.24,1.64-1.82,2.58-5.35-1.28-9.95-.67-12.79,2.16-4.59,4.59-3.34,13.79,2.31,23.34-1.62,2.72-2.9,5.45-3.79,8.1-.78,2.35-1.22,4.55-1.32,6.55-1.26.1-2.25,1.15-2.25,2.43,0,1.35,1.1,2.45,2.45,2.45.11,0,.22-.02.32-.03.47,1.51,1.22,2.82,2.28,3.88,1.88,1.88,4.55,2.83,7.81,2.83,1.54,0,3.22-.22,5-.65,2.88,4.68,6.55,7.49,10.56,7.49s7.7-2.82,10.58-7.52c1.76.42,3.44.65,5,.65,3.18,0,5.88-.9,7.78-2.8,3.07-3.07,3.53-8.21,1.8-14.13.9-.36,1.54-1.24,1.54-2.27ZM434.36,59.51c3.03,0,5.59.85,7.39,2.66,4.36,4.36,3.16,13.15-2.24,22.35-1.26-2.06-2.72-4.14-4.38-6.18-.76-7.23-2.72-13.59-5.44-18.24,1.64-.38,3.21-.58,4.66-.58ZM430.18,96.45c-3.59,3.59-7.46,6.64-11.36,8.99-3.83-2.31-7.71-5.34-11.36-8.99-1.58-1.58-3.04-3.2-4.38-4.84-.21-2.11-.33-4.29-.33-6.52s.11-4.41.33-6.52c1.35-1.65,2.81-3.27,4.38-4.84,3.65-3.65,7.53-6.67,11.36-8.98,3.82,2.31,7.71,5.33,11.36,8.98,1.58,1.58,3.04,3.2,4.38,4.84.21,2.11.33,4.29.33,6.52s-.11,4.41-.33,6.52c-1.34,1.64-2.8,3.26-4.38,4.84ZM434.43,92.7c-.82,6.85-2.72,12.87-5.31,17.26-3.05-.78-6.35-2.19-9.7-4.16,3.84-2.36,7.65-5.38,11.19-8.92,1.37-1.37,2.64-2.76,3.83-4.18ZM418.25,105.79c-2.59,1.52-5.19,2.73-7.71,3.57-.69.23-1.36.42-2.02.59-2.59-4.39-4.49-10.4-5.31-17.25,1.19,1.42,2.46,2.81,3.83,4.18,3.6,3.6,7.43,6.59,11.22,8.91ZM402.4,90.75c-1.48-1.88-2.79-3.78-3.93-5.66,1.15-1.9,2.47-3.8,3.93-5.66-.16,1.84-.25,3.73-.25,5.67s.09,3.82.25,5.66ZM403.21,77.48c.82-6.85,2.72-12.85,5.31-17.24,3.06.78,6.36,2.19,9.72,4.16-3.78,2.31-7.61,5.31-11.21,8.91-1.35,1.35-2.63,2.75-3.82,4.17ZM419.4,64.4c3.36-1.97,6.67-3.38,9.72-4.16,2.59,4.39,4.49,10.4,5.31,17.25-1.19-1.42-2.46-2.81-3.83-4.18-3.6-3.6-7.42-6.6-11.21-8.91ZM435.24,79.43c1.48,1.88,2.79,3.78,3.93,5.66-1.14,1.88-2.45,3.78-3.93,5.66.16-1.84.25-3.73.25-5.66s-.09-3.82-.25-5.66ZM410.5,57.36c.39.25.85.4,1.34.4,1.35,0,2.45-1.1,2.45-2.45,0-.42-.11-.81-.3-1.15,1.52-.97,3.15-1.5,4.83-1.5,3.77,0,7.24,2.65,9.99,7.06-3.15.83-6.55,2.29-9.99,4.33-3.44-2.04-6.84-3.5-9.99-4.33.53-.85,1.09-1.65,1.67-2.36ZM395.89,62.16c1.8-1.8,4.36-2.66,7.39-2.66,1.45,0,3.02.2,4.66.58-2.72,4.65-4.68,11.01-5.44,18.24-1.64,2.02-3.11,4.09-4.39,6.17-5.39-9.2-6.59-17.98-2.23-22.34ZM395.89,108.03c-.98-.98-1.68-2.19-2.12-3.59.9-.36,1.54-1.24,1.54-2.27,0-1.22-.89-2.22-2.05-2.41.1-1.94.53-4.08,1.3-6.38.84-2.52,2.05-5.12,3.57-7.7,1.26,2.06,2.72,4.14,4.38,6.18.76,7.22,2.72,13.58,5.44,18.24-5.24,1.23-9.46.52-12.05-2.07ZM418.82,117.52c-3.76,0-7.23-2.64-9.97-7.03.62-.16,1.24-.35,1.88-.56,2.66-.89,5.39-2.17,8.11-3.79,3.44,2.03,6.82,3.49,9.97,4.32-2.74,4.42-6.22,7.06-9.99,7.06ZM441.75,108.03c-2.67,2.67-6.99,3.25-12.05,2.07,2.72-4.66,4.68-11.02,5.44-18.24,1.65-2.04,3.12-4.12,4.38-6.18.85,1.46,1.6,2.9,2.24,4.32-.68.44-1.13,1.19-1.13,2.06,0,1.35,1.1,2.45,2.45,2.45.12,0,.24-.02.36-.04,1.67,5.7,1.25,10.63-1.68,13.56Z"/>
    </g>
  </g>
  <g id="Microscope">
    <g>
      <g>
        <polygon class="cls-9" points="352.71 78.87 350.47 79.36 348.85 77.28 353.34 76.32 352.71 78.87"/>
        <rect class="cls-9" x="347.63" y="65.96" width="4.58" height="10.84" transform="translate(-7.18 75.3) rotate(-12.16)"/>
      </g>
      <g>
        <polygon class="cls-9" points="344.9 78.95 342.85 77.92 342.88 75.29 346.98 77.35 344.9 78.95"/>
        <rect class="cls-9" x="345.13" y="65.95" width="4.58" height="10.84" transform="translate(68.92 -148.26) rotate(26.65)"/>
      </g>
      <g>
        <polygon class="cls-9" points="338.53 76.09 336.48 75.06 336.52 72.43 340.61 74.49 338.53 76.09"/>
        <rect class="cls-9" x="338.76" y="63.09" width="4.58" height="10.84" transform="translate(66.97 -145.71) rotate(26.65)"/>
      </g>
      <rect class="cls-13" x="307.92" y="97.56" width="34.17" height="8.32"/>
      <g>
        <path class="cls-9" d="M316.1,116.35h47.45c4.49,0,8.13,3.64,8.13,8.13v6.26h-55.58v-14.39h0Z"/>
        <line class="cls-10" x1="371.25" y1="123.51" x2="330.35" y2="123.51"/>
      </g>
      <rect class="cls-13" x="307.92" y="97.56" width="22.31" height="33.19"/>
      <g>
        <polygon class="cls-13" points="404.89 32.15 361.53 49.39 359.73 44.83 403.08 27.59 404.89 32.15"/>
        <rect class="cls-9" x="387.57" y="32.75" width="2.41" height="6.44" transform="translate(14.05 145.61) rotate(-21.59)"/>
        <rect class="cls-13" x="359.92" y="38.61" width="20.28" height="9.54" transform="translate(10.01 139.25) rotate(-21.6)"/>
      </g>
      <path class="cls-9" d="M369.09,53.39l-6.22,9.13-24.9.83-30.08,52.49s-9.34-14.32-9.34-21.16c0-.07,0-.14,0-.2.02-5.44,1.71-10.74,4.77-15.23l26.97-39.55h31.54l7.26,13.69Z"/>
      <line class="cls-10" x1="369.09" y1="53.39" x2="321.58" y2="53.39"/>
      <rect class="cls-13" x="339.43" y="34.68" width="15.56" height="4.98"/>
      <path class="cls-13" d="M308.02,97.17c-.69,0-1.39-.18-2.02-.56-1.88-1.12-2.49-3.55-1.37-5.43l15.54-26.05c1.12-1.88,3.55-2.49,5.43-1.37,1.88,1.12,2.49,3.55,1.37,5.43l-15.54,26.05c-.74,1.24-2.05,1.93-3.4,1.93Z"/>
      <polygon class="cls-13" points="362.87 62.52 357.18 72.63 337.23 64.65 342.9 55.19 362.87 62.52"/>
      <rect class="cls-13" x="333.92" y="87.3" width="31.72" height="2.45"/>
      <rect class="cls-9" x="333.92" y="89.85" width="20.5" height="7.35"/>
      <circle class="cls-9" cx="324.31" cy="107.87" r="7.35" transform="translate(-16.66 84.39) rotate(-14.46)"/>
      <path class="cls-9" d="M340.12,101.47c0-1.79-1.45-3.25-3.25-3.25s-3.25,1.45-3.25,3.25,1.45,3.25,3.25,3.25,3.25-1.45,3.25-3.25Z"/>
    </g>
  </g>
  <g id="Magnifying_glass" data-name="Magnifying glass">
    <g>
      <path class="cls-6" d="M188.89,61.6h0c-1.6-2.49-.82-5.82,1.73-7.34l36.31-21.41,4.08,6.38-34.74,23.87c-2.45,1.67-5.79.99-7.38-1.51Z"/>
      <path class="cls-3" d="M213.7,40.86l-23.08,13.41c-2.54,1.52-3.32,4.84-1.73,7.34s4.94,3.18,7.38,1.51l22.11-15.34-4.69-6.91Z"/>
      <path class="cls-6" d="M267.16,11.6c-7.17-11.2-22.06-14.47-33.26-7.3-11.2,7.17-14.47,22.06-7.3,33.26,7.17,11.2,22.06,14.47,33.26,7.3,11.2-7.17,14.47-22.06,7.3-33.26ZM231.54,34.4c-5.42-8.47-2.95-19.73,5.52-25.15,8.47-5.42,19.73-2.95,25.15,5.52,5.42,8.47,2.95,19.73-5.52,25.15-8.47,5.42-19.73,2.95-25.15-5.52Z"/>
    </g>
  </g>
  <g id="Books">
    <g>
      <g>
        <polygon class="cls-9" points="96.77 36.55 95 38.04 120.39 69.96 144.14 54.02 128.17 34.73 96.77 36.55"/>
        <polygon class="cls-7" points="131.39 48.64 119.5 71.53 161.96 56.22 176.23 33.79 131.39 48.64"/>
      </g>
      <polygon class="cls-7" points="119.5 71.53 92.83 38.14 95 38.04 120.39 69.96 119.5 71.53"/>
      <polygon class="cls-9" points="120.7 65.98 96.77 36.55 95 38.04 120.39 69.96 131.39 48.64 173.49 34.66 172.04 31.84 129.66 44.96 120.7 65.98"/>
      <polygon class="cls-9" points="120.7 65.98 124.05 43.45 169.3 30.22 167.81 33.08 129.66 44.96 120.7 65.98"/>
    </g>
    <g>
      <g>
        <polygon class="cls-13" points="134.88 70.73 117.36 105.79 152.33 125.5 171.4 90 134.88 70.73"/>
        <polygon class="cls-13" points="171.4 90 196.75 75.4 176.06 109.28 152.33 125.5 171.4 90"/>
        <polygon class="cls-9" points="136.51 71.55 137.44 70.01 171.19 86.56 193.14 74.46 194.93 76.21 171.4 90 136.51 71.55"/>
      </g>
      <path class="cls-9" d="M171.19,86.56s.74-4.28,5.34-7.04c4.6-2.76,14.26-6.29,14.26-6.29l-2.91,4.14-16.69,9.18Z"/>
      <path class="cls-9" d="M171.19,86.56s-3.4-5.81-8.3-7.8c-4.91-1.99-14.87-5.21-17.94-6.9-3.07-1.69-5.52-2.61-5.52-2.61l-1.99.77,33.75,16.54Z"/>
    </g>
  </g>
  <g id="Chart">
    <g>
      <rect class="cls-7" x="20.62" y="92.69" width="11.79" height="31.15"/>
      <rect class="cls-13" x="39.15" y="100.6" width="11.79" height="23.25"/>
      <rect class="cls-7" x="57.68" y="88.91" width="11.79" height="34.94"/>
      <rect class="cls-13" x="76.2" y="80.9" width="11.79" height="42.95"/>
      <polyline class="cls-2" points="13.46 82.22 13.46 127.69 98.21 127.69"/>
      <polyline class="cls-15" points="21.85 80.46 44.36 87.96 78.79 66.33"/>
      <polygon class="cls-13" points="77.02 61.48 82.32 70.75 88.94 60.59 77.02 61.48"/>
      <line class="cls-2" x1="21.4" y1="127.25" x2="21.4" y2="133.43"/>
      <line class="cls-2" x1="33.32" y1="127.25" x2="33.32" y2="133.43"/>
      <line class="cls-2" x1="45.24" y1="127.25" x2="45.24" y2="133.43"/>
      <line class="cls-2" x1="57.16" y1="127.25" x2="57.16" y2="133.43"/>
      <line class="cls-2" x1="69.08" y1="127.25" x2="69.08" y2="133.43"/>
      <line class="cls-2" x1="81" y1="127.25" x2="81" y2="133.43"/>
      <line class="cls-2" x1="92.91" y1="127.25" x2="92.91" y2="133.43"/>
      <line class="cls-2" x1="13.46" y1="122.39" x2="8.6" y2="122.39"/>
      <line class="cls-2" x1="13.46" y1="112.68" x2="8.6" y2="112.68"/>
      <line class="cls-2" x1="13.46" y1="102.97" x2="8.6" y2="102.97"/>
      <line class="cls-2" x1="13.46" y1="93.26" x2="8.6" y2="93.26"/>
    </g>
  </g>
  <g id="Speech_Bubble" data-name="Speech Bubble">
    <g>
      <path class="cls-7" d="M98.84,190.78l-20.28-11.01v-22.16c0-4.83-3.91-8.74-8.74-8.74H29.83c-4.83,0-8.74,3.91-8.74,8.74v41.34c0,4.83,3.91,8.74,8.74,8.74h39.98c4.83,0,8.74-3.91,8.74-8.74v-1.4l20.28-6.76Z"/>
      <g>
        <path class="cls-18" d="M44.4,200.63v-9.16h9.37v9.16h-9.37ZM44.66,189.41v-7.54l.19-.15c1.54-1.2,2.95-2.56,4.19-4.03,1.23-1.46,2.21-3.04,2.92-4.69.71-1.63,1.06-3.34,1.06-5.09,0-1.17-.2-2.02-.6-2.5-.38-.46-.93-.68-1.69-.68-.71,0-1.23.19-1.61.58-.38.4-.57.96-.57,1.71,0,.52.06.98.17,1.37.12.43.27.88.44,1.36l.19.53-8.73,2.02-.14-.43c-.29-.85-.51-1.7-.67-2.51-.16-.82-.25-1.69-.25-2.6,0-3.22,1-5.78,2.98-7.61,1.96-1.82,4.8-2.74,8.42-2.74s6.53.99,8.53,2.93c2,1.95,3.02,4.74,3.02,8.31,0,2.15-.36,4.23-1.08,6.17-.72,1.93-1.78,3.79-3.16,5.51-1.32,1.65-2.94,3.22-4.81,4.67v5.41h-8.79Z"/>
        <path class="cls-17" d="M50.95,156.91c3.54,0,6.27.93,8.19,2.79,1.91,1.86,2.87,4.51,2.87,7.95,0,2.11-.35,4.11-1.05,6-.7,1.9-1.73,3.68-3.08,5.37-1.35,1.68-2.99,3.26-4.92,4.74v5.16h-7.79v-6.79c1.58-1.23,3-2.6,4.26-4.11,1.26-1.51,2.26-3.11,3-4.82.74-1.7,1.11-3.47,1.11-5.29,0-1.3-.24-2.24-.71-2.82-.47-.58-1.17-.87-2.08-.87-.84,0-1.5.25-1.97.74-.47.49-.71,1.18-.71,2.05,0,.56.06,1.06.18,1.5.12.44.27.9.45,1.39l-7.74,1.79c-.28-.84-.5-1.66-.66-2.45-.16-.79-.24-1.62-.24-2.5,0-3.09.94-5.5,2.82-7.24,1.88-1.74,4.57-2.61,8.08-2.61M53.27,191.97v8.16h-8.37v-8.16h8.37M50.95,155.91c-3.75,0-6.7.97-8.76,2.87-2.08,1.93-3.14,4.61-3.14,7.97,0,.94.09,1.85.26,2.7.17.83.4,1.69.69,2.57l.29.86.89-.2,7.74-1.79,1.1-.25-.38-1.06c-.17-.46-.31-.91-.43-1.33-.1-.35-.15-.76-.15-1.23,0-.61.14-1.06.43-1.36.28-.29.69-.43,1.25-.43.8,0,1.13.29,1.31.5.22.27.48.87.48,2.18,0,1.68-.34,3.32-1.02,4.89-.69,1.61-1.65,3.14-2.85,4.57-1.21,1.45-2.6,2.78-4.11,3.96l-.39.3v8.28h9.79v-5.67c1.82-1.43,3.4-2.98,4.7-4.6,1.41-1.76,2.5-3.66,3.24-5.65.74-2,1.11-4.13,1.11-6.35,0-3.7-1.07-6.62-3.17-8.66-2.1-2.04-5.09-3.07-8.88-3.07h0ZM54.27,190.97h-10.37v10.16h10.37v-10.16h0Z"/>
      </g>
    </g>
  </g>
  <g id="Light_bulb" data-name="Light bulb">
    <g>
      <g>
        <path class="cls-11" d="M64.32,260.4c0-12.79-10.81-23.05-23.79-22.15-10.82.75-19.64,9.42-20.55,20.23-.52,6.15,1.47,11.83,5.06,16.13,3.27,3.92,5.06,8.87,5.06,13.97v3.04h24.01v-3.04c0-5.1,1.78-10.05,5.05-13.96,3.22-3.85,5.16-8.81,5.16-14.22Z"/>
        <rect class="cls-5" x="30.1" y="291.64" width="24.01" height="5.94"/>
        <path class="cls-5" d="M30.1,297.59h24.01v3.43c0,1.38-1.12,2.51-2.51,2.51h-18.99c-1.38,0-2.51-1.12-2.51-2.51v-3.43h0Z"/>
        <path class="cls-5" d="M33.13,303.52h17.95v3.43c0,1.38-1.12,2.51-2.51,2.51h-12.93c-1.38,0-2.51-1.12-2.51-2.51v-3.43h0Z"/>
      </g>
      <g>
        <line class="cls-12" x1="67.47" y1="260.52" x2="77.64" y2="260.52"/>
        <line class="cls-12" x1="5.62" y1="260.52" x2="15.92" y2="260.52"/>
        <line class="cls-12" x1="41.63" y1="234.71" x2="41.63" y2="224.51"/>
        <line class="cls-12" x1="60.07" y1="242.08" x2="67.1" y2="235.06"/>
        <line class="cls-12" x1="16.17" y1="285.98" x2="23.29" y2="278.86"/>
        <line class="cls-12" x1="22.99" y1="241.88" x2="16.17" y2="235.06"/>
        <line class="cls-12" x1="67.1" y1="285.98" x2="60.31" y2="279.19"/>
      </g>
    </g>
  </g>
  <g id="Arrows">
    <g>
      <polygon class="cls-10" points="124.86 154.78 164.07 172.82 165.07 162.5 183.52 184.17 156.54 190.7 161.11 180.86 119.61 171.24 128.01 165.05 124.86 154.78"/>
      <polygon class="cls-10" points="247.44 56.64 242.75 88.84 252.84 86.43 238.35 110.93 223.39 87.54 234.19 88.65 230.16 57.03 238.75 62.96 247.44 56.64"/>
      <polygon class="cls-10" points="101.88 238.4 144.23 230.05 138.99 221.09 166.64 227.85 148.6 248.95 146.54 238.3 107.27 254.82 110.44 244.88 101.88 238.4"/>
      <polygon class="cls-10" points="333.53 154.78 294.32 172.82 293.32 162.5 274.87 184.17 301.84 190.7 297.28 180.86 338.78 171.24 330.38 165.05 333.53 154.78"/>
      <polygon class="cls-10" points="356.51 238.4 314.16 230.05 319.4 221.09 291.75 227.85 309.79 248.95 311.85 238.3 351.12 254.82 347.95 244.88 356.51 238.4"/>
    </g>
  </g>
  <g id="Character">
    <g>
      <g>
        <g>
          <path class="cls-8" d="M202.66,250.9s-20.35,1.1-27.57,5.16c-7.22,4.06-8.57,27.96-8.57,27.96l-28,55.15s-52.43,12.78-58.77,13.74c-6.34.96-10.69-.78-16.36.79-5.67,1.56-5.95,2.44-10.18,7.13-4.23,4.68-6.12,9.21-4.48,10.08,1.64.87,5.62-2.66,6.83-4s4.6-3.75,4.6-3.75c0,0-3.05,9.8-4.4,14.47-2.83,9.76-4.81-7.72-7.29-5.81-3.22,2.47-.96,16.82,7.25,15.12,8.22-1.69,12.27-1.5,15.56-5.82,3.29-4.32,10.42-14.9,10.42-14.9,0,0,29.34-2.04,46.18-3.85,16.83-1.81,31.66-9.58,37.24-14.98,4.95-4.79,21.7-40.38,21.7-40.38l15.33-40.59s4.17-8.52.51-15.54Z"/>
          <path class="cls-8" d="M56.81,382.72s-1.94,1.63-2.85,2.14c-.92.51-2.67,1.03-4.79,1.32-4.2.59-5.7,2.34-4.68,3.46s2.85.92,6.72.92,6.52-1.83,8.05-2.75,3.26-2.95,3.26-2.95"/>
          <path class="cls-8" d="M61.03,383.01s-1.71,1.87-2.55,2.49c-.84.62-2.46,1.65-4.58,1.93-2.12.28-5.35,3.06-4.2,4.04,1.15.98,2.95.54,6.78.04,3.84-.5,6.23-2.66,7.62-3.76,1.4-1.11,2.85-3.35,2.85-3.35"/>
          <g>
            <path class="cls-18" d="M73.48,359.4s-3.53.8-5.97,6.34c-2.43,5.55-.78,16.19-2.35,16.88-1.57.7-3.07.28-4.94-.24-1.88-.52-4.89-.93-4.19,1.3,1.53,4.91,10.01,3.01,10.01,3.01,0,0,1.28-.18,4.46-4.68,3.17-4.5,10.28-14.83,10.28-14.83"/>
            <path class="cls-14" d="M73.48,359.4s-3.53.8-5.97,6.34c-2.43,5.55-.78,16.19-2.35,16.88-1.57.7-3.07.28-4.94-.24-1.88-.52-4.89-.93-4.19,1.3,1.53,4.91,10.01,3.01,10.01,3.01,0,0,1.28-.18,4.46-4.68,3.17-4.5,10.28-14.83,10.28-14.83"/>
          </g>
        </g>
        <line class="cls-14" x1="185.08" y1="304.88" x2="179.16" y2="285.7"/>
      </g>
      <g>
        <g>
          <path class="cls-8" d="M256.96,250.9s20.35,1.1,27.57,5.16c7.22,4.06,8.57,27.96,8.57,27.96l28,55.15s52.43,12.78,58.77,13.74c6.34.96,10.69-.78,16.36.79,5.67,1.56,5.95,2.44,10.18,7.13,4.23,4.68,6.12,9.21,4.48,10.08-1.64.87-5.62-2.66-6.83-4-1.21-1.34-4.6-3.75-4.6-3.75,0,0,3.05,9.8,4.4,14.47,2.83,9.76,4.81-7.72,7.29-5.81,3.22,2.47.96,16.82-7.25,15.12-8.22-1.69-12.27-1.5-15.56-5.82-3.29-4.32-10.42-14.9-10.42-14.9,0,0-29.34-2.04-46.18-3.85-16.83-1.81-31.66-9.58-37.24-14.98-4.95-4.79-21.7-40.38-21.7-40.38l-15.33-40.59s-4.17-8.52-.51-15.54Z"/>
          <path class="cls-8" d="M402.81,382.72s1.93,1.63,2.85,2.14,2.67,1.03,4.79,1.32c4.2.59,5.7,2.34,4.68,3.46s-2.85.92-6.72.92-6.52-1.83-8.05-2.75-3.26-2.95-3.26-2.95"/>
          <path class="cls-8" d="M398.59,383.01s1.71,1.87,2.55,2.49c.84.62,2.46,1.65,4.58,1.93,2.12.28,5.35,3.06,4.2,4.04-1.15.98-2.95.54-6.78.04-3.84-.5-6.23-2.66-7.62-3.76-1.4-1.11-2.85-3.35-2.85-3.35"/>
          <g>
            <path class="cls-18" d="M386.14,359.4s3.53.8,5.97,6.34.78,16.19,2.35,16.88c1.57.7,3.07.28,4.94-.24,1.88-.52,4.89-.93,4.19,1.3-1.53,4.91-10.01,3.01-10.01,3.01,0,0-1.28-.18-4.46-4.68-3.17-4.5-10.28-14.83-10.28-14.83"/>
            <path class="cls-14" d="M386.14,359.4s3.53.8,5.97,6.34.78,16.19,2.35,16.88c1.57.7,3.07.28,4.94-.24,1.88-.52,4.89-.93,4.19,1.3-1.53,4.91-10.01,3.01-10.01,3.01,0,0-1.28-.18-4.46-4.68-3.17-4.5-10.28-14.83-10.28-14.83"/>
          </g>
        </g>
        <line class="cls-14" x1="274.54" y1="304.88" x2="280.46" y2="285.7"/>
      </g>
      <path class="cls-8" d="M216.38,223.45s3.87,10.49-.45,17.58c-4.32,7.09-13.26,9.87-13.26,9.87l-17.58,53.97,9.25,36.39s-16.35,24.98-22.82,40.09c-6.48,15.11,1.31,32.22,8.09,39.31,6.79,7.09,15.78,16.69,38.79,15.78,32.01-1.26,54.77,1.66,64.94-10.37,10.18-12.03,11.27-34.73-.9-51.86-7.4-10.42-17.47-32.96-17.47-32.96l10.02-37.52-15.31-52.94s-9.21-.53-14.76-7.31c-5.55-6.79-.32-19.12-.32-19.12l-28.22-.93Z"/>
      <path class="cls-17" d="M231.47,237.77c3.52,0,7.98-.73,11.03-2.03-1.34-5.74,2.1-11.36,2.1-11.36l-28.22-.93s3.1,5.53,1.28,11.15c3.72,2.14,9.22,3.17,13.82,3.17Z"/>
      <g>
        <ellipse class="cls-1" cx="236.42" cy="130.69" rx="16.56" ry="14.62"/>
        <path class="cls-8" d="M206.11,193.02s-5.65-4.62-5.65,4.11,6.67,12.32,6.67,12.32l-1.03-16.42Z"/>
        <path class="cls-8" d="M255.9,193.02s5.65-4.62,5.65,4.11-6.67,12.32-6.67,12.32l1.03-16.42Z"/>
        <path class="cls-1" d="M234.91,141.44s-23.65-1.72-31.39,7.31c-7.74,9.03,3.14,48.48,3.14,48.48h50.61s6.02-24.83,6.02-36.87-3.87-18.49-28.38-18.92Z"/>
        <path class="cls-8" d="M231.47,230.81h0c-13.7,0-24.8-11.11-24.8-24.8v-38.11c0-5.11,5.03-6.24,13.2-10.54l6.02-3.44,21.15,4.74c6.38,1.71,9.25,4.14,9.25,9.25v38.11c0,13.7-11.11,24.8-24.8,24.8Z"/>
        <path class="cls-14" d="M213.05,189.12s4.92,3.82,11.47,0"/>
        <path class="cls-14" d="M238.73,189.12s4.92,3.82,11.47,0"/>
        <path class="cls-4" d="M211.96,181.75s3-5.19,12.29-4.37"/>
        <path class="cls-4" d="M236.81,177.38s8.47-3.82,14.2,4.37"/>
        <path class="cls-14" d="M226.76,199.74s4.06,3.04,8.8,0"/>
        <path class="cls-14" d="M219.65,205.49l4.64,1.74c3.99,1.49,8.38,1.47,12.35-.07l4.32-1.67"/>
        <path class="cls-1" d="M225.88,153.91s-.81,12.68,16.78,16.4c17.59,3.72,15.9-5.75,15.9-5.75,0,0-12.52-8.8-20.97-12.18s-11.7,1.53-11.7,1.53Z"/>
      </g>
      <g>
        <path class="cls-16" d="M171.51,381.36c-6.48,15.11,1.31,32.22,8.09,39.31,6.79,7.09,15.78,16.69,38.79,15.78,32.01-1.26,54.76,1.66,64.94-10.37,10.18-12.03,11.27-34.73-.9-51.86-2.38-3.34-5.02-7.93-7.53-12.63h-93.07c-3.91,6.73-7.84,13.97-10.32,19.77Z"/>
        <g>
          <path class="cls-11" d="M202.66,250.9s7.75,14.14,28.35,14.14,25.94-14.13,25.94-14.14c.67-1.99,15.3-.44,17.44-.11,5.06.78,12.76,1.87,15.86,6.52,2.06,3.09,10.3,20.6,10.3,20.6l-25.57,25.83s-6.88,30.83-6.37,35.47c.52,4.64,15.97,37.09,15.97,37.09h-111.26l16.48-37.09-2.99-32.19-27.92-24.47s5.67-21.63,10.3-24.72c4.64-3.09,24.68-9.73,33.46-6.93Z"/>
          <g>
            <path class="cls-11" d="M199.89,323.61c2.06-5.08,4.52-11.78,7.24-20.41"/>
            <path class="cls-11" d="M193.39,337.2s1.74-2.61,4.63-9.15"/>
            <path class="cls-11" d="M249.08,305.38s7.96,21.7,13.74,29.66"/>
            <line class="cls-11" x1="181.42" y1="278.43" x2="180.37" y2="272.83"/>
            <line class="cls-11" x1="186.82" y1="307.03" x2="182.49" y2="284.09"/>
            <line class="cls-11" x1="274.98" y1="303.75" x2="280.18" y2="272.83"/>
            <path class="cls-11" d="M266.28,353.76c.97,1.52,1.99,3,3.05,4.41"/>
            <path class="cls-11" d="M251.97,322.01s4.51,15.03,12.28,28.42"/>
            <path class="cls-11" d="M210.75,302.48s-5.79,18.81-7.96,24.59"/>
          </g>
        </g>
        <g>
          <path class="cls-16" d="M222,411.96c-16.24-16.84-45.7-25.26-60.13-27.66-14.43-2.41-40.89-16.92-40.89-16.92,0,0-15.64-.52-14.43,18.12,1.2,18.64,46.3,40.29,63.74,49.91,17.44,9.62,36.08,9.02,51.71,1.8"/>
          <path class="cls-16" d="M232.15,412.56c16.24-16.84,45.7-25.26,60.13-27.66,14.43-2.41,36.89-14.71,36.89-14.71,0,0,19.63-2.73,18.43,15.91-1.2,18.64-46.3,40.29-63.74,49.91-17.44,9.62-36.08,9.02-51.71,1.8"/>
        </g>
        <g>
          <g>
            <path class="cls-8" d="M299.1,427.75s1.66-2.1-.55-5.29c-2.21-3.19-6.94,1.47-10.82,2.73-3.88,1.26-19.17,4.66-26.46,6.25-6.23,1.36-15.9,1.42-18.76,1.89.83,4.19,1.02,9.07-.79,13.4-1.4.07,2.89-.12,1.44-.06,12.68-.57,19.94-.68,23.86-1.1,7.17-.77,16.42,2.48,23.71-.29,7.3-2.76,12.4-9.88,11.37-13.06-1.03-3.18-3.02-4.48-3.02-4.48Z"/>
            <path class="cls-8" d="M242.09,433.41c.11-.02.24-.04.39-.07-.16.03-.28.05-.39.07Z"/>
            <path class="cls-8" d="M241.73,433.47s.07-.01.19-.03c-.12.02-.19.03-.19.03Z"/>
          </g>
          <path class="cls-14" d="M299.11,427.75s-2.92,1.63-6.21,2.07"/>
          <path class="cls-14" d="M302.12,432.23s-4.17,1.79-8.2,2.72"/>
          <path class="cls-14" d="M293.55,438.51s3.32.83,6.67-1.02"/>
          <path class="cls-14" d="M291.54,441.71c.35-.11,1.76.7,6.17-.99"/>
          <path class="cls-16" d="M241.73,446.74c1.81-4.33,1.62-9.22.79-13.4-.49.08-.78.13-.78.13,0,0-27.96-5.95-51.71-20.43-23.76-14.48-53.82-36.75-69.04-45.66-15.22-8.91-29.7,4.45-28.21,18.56,1.48,14.11,12.99,21.53,33.78,30.07,20.79,8.54,58.65,21.9,78.69,25.98,10.33,2.1,24.94,5.31,36.49,4.75Z"/>
        </g>
        <g>
          <path class="cls-16" d="M200.14,445.92c-1.94-4.33-1.8-9.22-1.01-13.41.51.08.82.13.82.13,0,0,28.85-6.05,53.5-20.53,24.65-14.48,63.76-36.28,79.55-45.19,15.79-8.91,30.81,4.45,29.27,18.56-1.54,14.11-13.48,21.53-35.05,30.07-21.57,8.54-68.76,21.43-89.56,25.51-10.72,2.1-25.53,5.38-37.52,4.86Z"/>
          <g>
            <path class="cls-8" d="M199.13,432.52s-27.69-3.46-36.43-5.88c-8.74-2.42-14.6-7.94-17.48-6.38-2.87,1.55-.49,5.43-.49,5.43,0,0-1.95,4.82-.06,7.97,1.9,3.16,4.77,6.21,14.54,11.3,9.78,5.1,21.32,3.15,27.43,2.88,6.11-.27,13.48-1.91,13.48-1.91,0,0-2.35-4.66-1.01-13.41Z"/>
            <path class="cls-14" d="M144.74,425.68s2.44-1.03,4.28.89c1.83,1.91,4.52,2.78,4.52,2.78"/>
            <path class="cls-14" d="M143.91,431.47s1.96-1.16,3.84-.12c1.89,1.03,4.36,1.55,4.36,1.55"/>
            <path class="cls-14" d="M147.61,437.11s.86-1.39,1.87-1.18c1.01.21,5.11,1.61,6.22,1.75"/>
            <path class="cls-14" d="M152.95,441.25s1.28-1.11,2.31-.99c1.02.12,1.04.03,3.53.46"/>
          </g>
        </g>
      </g>
    </g>
  </g>
</svg>