<?xml version="1.0" encoding="UTF-8"?>
<svg id="Layer_1" data-name="Layer 1" xmlns="http://www.w3.org/2000/svg" viewBox="0 0 334.03 334.03">
  <defs>
    <style>
      .cls-1 {
        stroke: #755da8;
        stroke-width: 3px;
      }

      .cls-1, .cls-2, .cls-3 {
        fill: none;
        stroke-miterlimit: 10;
      }

      .cls-4 {
        fill: #92d7ed;
      }

      .cls-2 {
        stroke: #4582c3;
        stroke-width: 5px;
      }

      .cls-3 {
        stroke: #3b547d;
        stroke-width: 2px;
      }

      .cls-5 {
        fill: #37ace2;
      }
    </style>
  </defs>
  <g>
    <g>
      <g>
        <g>
          <circle class="cls-1" cx="167.02" cy="10.58" r="9.08"/>
          <circle class="cls-1" cx="167.02" cy="323.45" r="9.08"/>
        </g>
        <g>
          <circle class="cls-1" cx="323.45" cy="167.02" r="9.08"/>
          <circle class="cls-1" cx="10.58" cy="167.02" r="9.08"/>
        </g>
        <g>
          <circle class="cls-1" cx="277.63" cy="56.4" r="9.08"/>
          <circle class="cls-1" cx="56.4" cy="277.63" r="9.08"/>
        </g>
        <g>
          <circle class="cls-1" cx="277.63" cy="277.63" r="9.08"/>
          <circle class="cls-1" cx="56.4" cy="56.4" r="9.08"/>
        </g>
      </g>
      <circle class="cls-2" cx="167.02" cy="167.02" r="143.14"/>
    </g>
    <g>
      <g>
        <polygon class="cls-1" points="167.02 54.82 177.27 37.06 156.76 37.06 167.02 54.82"/>
        <polygon class="cls-1" points="167.02 279.21 156.76 296.97 177.27 296.97 167.02 279.21"/>
      </g>
      <g>
        <polygon class="cls-1" points="54.82 167.02 37.06 156.76 37.06 177.27 54.82 167.02"/>
        <polygon class="cls-1" points="279.21 167.02 296.97 177.27 296.97 156.76 279.21 167.02"/>
      </g>
    </g>
    <circle class="cls-3" cx="167.02" cy="167.02" r="131.59"/>
  </g>
  <g>
    <g>
      <g>
        <g>
          <polyline class="cls-5" points="167.02 105.09 176.02 118.1 184.02 118.1 184.02 115.13 167.03 90.08"/>
          <polyline class="cls-5" points="167.02 105.09 158.01 118.1 150.01 118.1 150.01 115.13 167.01 90.08"/>
        </g>
        <g>
          <polyline class="cls-5" points="167.02 228.95 158.01 215.94 150.01 215.94 150.01 218.91 167.01 243.95"/>
          <polyline class="cls-5" points="167.02 228.95 176.02 215.94 184.02 215.94 184.02 218.91 167.03 243.95"/>
        </g>
      </g>
      <g>
        <g>
          <polyline class="cls-5" points="123.23 123.23 138.79 126.06 144.45 120.4 142.35 118.3 112.62 112.61"/>
          <polyline class="cls-5" points="123.23 123.23 126.06 138.79 120.4 144.45 118.3 142.35 112.61 112.62"/>
        </g>
        <g>
          <polyline class="cls-5" points="210.81 210.81 195.24 207.98 189.58 213.64 191.68 215.74 221.41 221.42"/>
          <polyline class="cls-5" points="210.81 210.81 207.98 195.24 213.64 189.58 215.74 191.68 221.42 221.41"/>
        </g>
      </g>
      <g>
        <g>
          <polyline class="cls-5" points="123.23 210.81 126.06 195.24 120.4 189.58 118.3 191.68 112.61 221.41"/>
          <polyline class="cls-5" points="123.23 210.81 138.79 207.98 144.45 213.64 142.35 215.74 112.62 221.42"/>
        </g>
        <g>
          <polyline class="cls-5" points="210.81 123.23 207.98 138.79 213.64 144.45 215.74 142.35 221.42 112.62"/>
          <polyline class="cls-5" points="210.81 123.23 195.24 126.06 189.58 120.4 191.68 118.3 221.41 112.61"/>
        </g>
      </g>
      <g>
        <g>
          <polyline class="cls-5" points="105.09 167.02 118.1 158.01 118.1 150.01 115.13 150.01 90.08 167.01"/>
          <polyline class="cls-5" points="105.09 167.02 118.1 176.02 118.1 184.02 115.13 184.02 90.08 167.03"/>
        </g>
        <g>
          <polyline class="cls-5" points="228.95 167.02 215.94 176.02 215.94 184.02 218.91 184.02 243.95 167.03"/>
          <polyline class="cls-5" points="228.95 167.02 215.94 158.01 215.94 150.01 218.91 150.01 243.95 167.01"/>
        </g>
      </g>
    </g>
    <g>
      <g>
        <g>
          <polyline class="cls-4" points="167.02 84.94 178.95 102.18 189.56 102.18 189.56 98.25 167.03 65.06"/>
          <polyline class="cls-4" points="167.02 84.94 155.08 102.18 144.48 102.18 144.48 98.25 167.01 65.06"/>
        </g>
        <g>
          <polyline class="cls-4" points="167.02 249.09 155.08 231.85 144.48 231.85 144.48 235.79 167.01 268.98"/>
          <polyline class="cls-4" points="167.02 249.09 178.95 231.85 189.56 231.85 189.56 235.79 167.03 268.98"/>
        </g>
      </g>
      <g>
        <g>
          <polyline class="cls-4" points="108.98 108.98 129.61 112.73 137.11 105.23 134.33 102.45 94.93 94.91"/>
          <polyline class="cls-4" points="108.98 108.98 112.73 129.61 105.23 137.11 102.45 134.33 94.91 94.93"/>
        </g>
        <g>
          <polyline class="cls-4" points="225.05 225.05 204.42 221.3 196.93 228.8 199.71 231.58 239.11 239.12"/>
          <polyline class="cls-4" points="225.05 225.05 221.3 204.42 228.8 196.93 231.58 199.71 239.12 239.11"/>
        </g>
      </g>
      <g>
        <g>
          <polyline class="cls-4" points="108.98 225.05 112.73 204.42 105.23 196.93 102.45 199.71 94.91 239.11"/>
          <polyline class="cls-4" points="108.98 225.05 129.61 221.3 137.11 228.8 134.33 231.58 94.93 239.12"/>
        </g>
        <g>
          <polyline class="cls-4" points="225.05 108.98 221.3 129.61 228.8 137.11 231.58 134.33 239.12 94.93"/>
          <polyline class="cls-4" points="225.05 108.98 204.42 112.73 196.93 105.23 199.71 102.45 239.11 94.91"/>
        </g>
      </g>
      <g>
        <g>
          <polyline class="cls-4" points="84.94 167.02 102.18 155.08 102.18 144.48 98.25 144.48 65.06 167.01"/>
          <polyline class="cls-4" points="84.94 167.02 102.18 178.95 102.18 189.56 98.25 189.56 65.06 167.03"/>
        </g>
        <g>
          <polyline class="cls-4" points="249.09 167.02 231.85 178.95 231.85 189.56 235.79 189.56 268.98 167.03"/>
          <polyline class="cls-4" points="249.09 167.02 231.85 155.08 231.85 144.48 235.79 144.48 268.98 167.01"/>
        </g>
      </g>
    </g>
  </g>
</svg>