<?xml version="1.0" encoding="UTF-8"?>
<svg xmlns="http://www.w3.org/2000/svg" viewBox="0 0 201.97 201.97">
  <defs>
    <style>
      .cls-1 {
        opacity: .2;
      }

      .cls-1, .cls-2 {
        fill: #1f1e21;
      }

      .cls-3 {
        fill: #6dbcdb;
      }

      .cls-4 {
        fill: #4ea2c4;
      }

      .cls-5 {
        fill: #daaa82;
      }

      .cls-2 {
        mix-blend-mode: overlay;
        opacity: .5;
      }

      .cls-6 {
        isolation: isolate;
      }

      .cls-7 {
        fill: #676372;
      }

      .cls-8 {
        fill: #c73538;
      }

      .cls-9 {
        fill: #f3bcca;
      }

      .cls-10 {
        fill: #48569c;
      }

      .cls-11 {
        fill: #eeb997;
      }
    </style>
  </defs>
  <g class="cls-6">
    <g id="OBJECTS">
      <g>
        <path class="cls-3" d="M201.97,100.99c0,49.16-35.13,90.12-81.66,99.14-6.26,1.21-12.72,1.85-19.33,1.85C45.21,201.97,0,156.76,0,100.99S45.21,0,100.99,0s97.2,41.52,100.75,94.06c.16,2.29.23,4.6.23,6.92Z"/>
        <path class="cls-4" d="M0,100.99c0,49.16,35.13,90.12,81.66,99.14l19.33-19.33V23.33s-.02,0-.03,0c-.09.01-.18.02-.26.02-.33,0-.65-.08-.95-.29-.01.01-.02.02-.04.03-.02.02-.13-.03-.32-.12-1.04-.53-4.3-2.56-4.72-2.75-6.39-2.95-19.79,2.42-19.79,2.42l-13.32,10.9L.23,94.06c-.16,2.29-.23,4.6-.23,6.92Z"/>
        <g>
          <g>
            <g>
              <g>
                <path class="cls-7" d="M161.25,182.03c-11.9,8.86-25.81,15.17-40.93,18.1-6.26,1.21-12.72,1.85-19.33,1.85h0c-22.58,0-43.44-7.42-60.26-19.94,5.04-18.3,18.69-33.19,36.48-40.31,2.68-1.08,5.46-1.97,8.32-2.68.7-.17,1.39-.33,2.1-.48,4.31-.91,8.77-1.39,13.36-1.39h0c4.58,0,9.06.48,13.36,1.39.28.06.56.12.84.18.42.1.85.2,1.27.3,21.8,5.4,39,21.93,44.8,42.99Z"/>
                <path class="cls-5" d="M67.82,99.2c-.24.64-.52,1.27-.93,1.83-.66.89-1.6,1.52-2.55,2.1-1.24.76-2.59,1.48-4.04,1.48h-.06c-.95-.01-1.89-.34-2.71-.81-2.05-1.18-3.45-3.21-4.67-5.24-1.7-2.81-3.21-5.76-4.09-8.92-.88-3.16-1.08-6.57-.18-9.72.23-.8.54-1.6.99-2.3.89-1.38,2.33-2.31,3.93-2.76.1-.03.2-.06.31-.08,1.15-.28,2.38-.3,3.53-.08.4.08.8.18,1.18.31.2.06.39.13.58.21.39.15.77.33,1.14.53,1.66.89,3.12,2.21,4.32,3.67.94,1.15,1.74,2.41,2.39,3.74.35.71.66,1.45.93,2.21.38,1.09.67,2.21.86,3.36.6,3.49.31,7.14-.95,10.46Z"/>
                <path class="cls-5" d="M149.5,98.55c-1.22,2.02-2.62,4.06-4.67,5.24-.84.49-1.79.81-2.77.81-1.45,0-2.8-.72-4.04-1.48-.95-.58-1.89-1.21-2.55-2.1-.41-.55-.69-1.19-.93-1.83-2.48-6.54-1.2-14.36,3.23-19.77,1.86-2.27,4.34-4.17,7.22-4.73,2.88-.56,6.17.45,7.77,2.92.45.7.76,1.49.99,2.3.91,3.15.7,6.56-.17,9.72s-2.39,6.11-4.09,8.92Z"/>
                <g>
                  <path class="cls-5" d="M116.45,126.02v25.95c0,8.54-6.92,15.46-15.46,15.46h0c-8.54,0-15.46-6.92-15.46-15.46v-25.95h30.92Z"/>
                  <path class="cls-2" d="M116.45,121.88v15.47c-.4.48-.83.94-1.27,1.39-3.26,3.32-7.49,5.89-12.22,7.35-.66.2-1.32.38-1.98.54-2.27.54-4.57.8-6.84.8-2.98,0-5.9-.46-8.62-1.37v-24.18h30.92Z"/>
                </g>
                <path class="cls-9" d="M141.7,47.13v57.52c0,6.33-2.78,12.43-7.81,17.13-4.33,4.04-9.7,9.03-14.08,13.01-1.04.94-2.16,1.8-3.36,2.56-.68.43-1.38.84-2.11,1.2-3.99,2.05-8.6,3.17-13.36,3.17-3.57,0-7.06-.63-10.27-1.81-1.06-.39-2.1-.84-3.09-1.36-.72-.37-1.42-.77-2.1-1.2-1.2-.76-2.33-1.62-3.37-2.57-4.37-3.98-9.75-8.97-14.07-13.01-.66-.62-1.29-1.26-1.86-1.93-.24-.27-.47-.55-.7-.83-.3-.36-.58-.74-.85-1.11-.1-.13-.19-.27-.29-.41-.22-.32-.44-.65-.65-.98-.01-.01-.02-.03-.02-.04-.11-.17-.21-.35-.31-.52-.52-.88-.97-1.78-1.36-2.7-.14-.33-.28-.67-.4-1.01-.02-.06-.04-.11-.06-.16-.06-.16-.11-.31-.16-.47-.07-.19-.12-.38-.18-.56-.06-.19-.11-.39-.17-.58-.05-.19-.1-.37-.14-.56-.1-.38-.18-.77-.26-1.15-.04-.19-.07-.39-.1-.58-.03-.19-.06-.39-.09-.58-.02-.17-.04-.33-.06-.5-.02-.13-.03-.27-.04-.4-.06-.64-.1-1.27-.1-1.92v-57.66h81.43Z"/>
                <path class="cls-8" d="M149.02,74.91c-.59,3.13-1.5,6.18-2.96,9-.46.89-.92,1.78-1.38,2.67-.24.47-.47,1.32-.85,1.75-.02.03-.05.05-.07.08-.38.36-.81.31-1.29.33-.25.01-.5.01-.76.01-.39,0-.78-.01-1.17-.01H62.03c-.39,0-.78,0-1.17.01-.2,0-.39,0-.59,0-.06,0-.11,0-.17,0-.49-.02-.91.03-1.29-.33-.02-.02-.05-.05-.07-.08-.37-.43-.6-1.28-.85-1.75-.46-.89-.92-1.77-1.38-2.67-1.46-2.82-2.38-5.87-2.96-9,0-.02,0-.03-.01-.05-1.11-5.97-1.51-12.51-1.02-18.62.02-.23.04-.45.06-.67.02-.22.04-.45.07-.67l.06-.58c.02-.19.04-.38.07-.58.1-.77.21-1.54.35-2.3.07-.38.14-.77.22-1.15,1.03-5.14,2.99-10.64,6.28-14.68.01-.01.02-.03.03-.04,2.51-3.08,5.79-5.3,10.01-5.84,1.01-2.91,2.98-5.4,5.45-7.26,0,0,.01,0,.01,0,1.65-1.25,3.51-2.22,5.47-2.86,4.89-1.61,10.25-1.34,15.23-.03,3.54.93,6.94,2.35,10.51,3.15,4.12.91,8.38.94,12.61.91,2.33-.02,4.73-.07,6.89-.96,2.16-.88,4.06-2.79,4.24-5.12,1.53.87,2.75,2.28,3.39,3.92-.4-2.52-1.21-5.53-3.58-6.34,4.44,1.4,8.25,4.7,10.25,8.91,2.03,4.28,2.14,9.43.31,13.8,3.1.25,6.13,1.43,8.58,3.35-2.35.04-4.69.45-6.92,1.2.81-.28,4.12,6.23,4.47,6.99,1.23,2.62,2.09,5.41,2.57,8.27.27,1.65.47,3.29.58,4.92.29,4.11.07,8.19-.7,12.33Z"/>
                <path class="cls-11" d="M141.7,47.13v57.52c0,4.03-1.13,7.97-3.24,11.5h-.01c-.02.06-.05.1-.08.14-.04.08-.09.16-.14.23-.31.5-.64,1-1,1.48-.12.17-.24.33-.37.5-.12.16-.25.32-.38.49-.12.15-.24.29-.36.44-.29.35-.6.69-.91,1.03-.13.14-.27.28-.4.42-.12.13-.25.25-.37.38-.18.18-.36.35-.54.52-4.33,4.04-9.7,9.03-14.08,13.01-1.04.94-2.16,1.8-3.36,2.56-.68.43-1.38.84-2.11,1.2-3.99,2.05-8.6,3.17-13.36,3.17-3.57,0-7.06-.63-10.27-1.81-1.06-.39-2.1-.84-3.09-1.36-.72-.37-1.42-.77-2.1-1.2-1.2-.76-2.33-1.62-3.37-2.57-4.37-3.98-9.75-8.97-14.07-13.01-.66-.62-1.29-1.26-1.86-1.93-.25-.27-.48-.55-.7-.83-.3-.36-.58-.74-.85-1.11-.1-.13-.19-.27-.29-.41-.23-.32-.44-.65-.65-.98-.01-.01-.02-.03-.02-.04-.11-.17-.21-.35-.31-.52-.52-.88-.97-1.78-1.36-2.7-.14-.33-.28-.67-.4-1.01-.02-.06-.04-.11-.06-.16-.06-.16-.11-.31-.16-.47-.07-.19-.12-.38-.18-.56-.06-.19-.11-.39-.17-.58-.05-.19-.1-.37-.14-.56-.1-.38-.18-.77-.26-1.15-.04-.19-.07-.39-.1-.58-.03-.19-.06-.39-.09-.58-.02-.17-.04-.33-.06-.5-.02-.13-.03-.27-.04-.4-.06-.64-.1-1.27-.1-1.92v-57.66h81.43Z"/>
                <path class="cls-8" d="M143.83,85.93v10.92c0,1.57-.86,2.95-2.13,3.68-.62.36-1.35.57-2.12.57,0-2.16,0-4.33-.04-6.49-.03-1.9.26-4.12-.66-5.88-.1-.19-.21-.37-.33-.55-1.41-1.99-2.86-3.99-3.69-6.31-1.36-3.75-.25-7.48-2.45-11.16-1.91-3.19-5.12-5.59-8.77-6.4-3.93-.87-8.94.76-13.05.89-6.59.21-13.21-.4-19.66-1.82-2.63-.58-15.56-3.47-14.16-8.13-.62,2.05-.92,4.22-1.91,6.13-1.22,2.36-3.06,3.8-5.04,5.51-1.99,1.71-1.37,4.3-1.55,6.77-.22,2.94-.31,6.25-1.16,9.08-.76,2.54-2.96,4.3-3.77,6.81-.52,1.61-.29,3.37-.31,5.04-.04,2.16-.04,4.32-.04,6.49-.77,0-1.5-.21-2.12-.57-1.27-.73-2.13-2.11-2.13-3.68v-10.92h.4v-26.63c0-1.67.38-3.3.34-4.94-.06-2.1-.19-4.13.04-6.24.41-3.63,1.51-7.18,3.36-10.34,2.81-4.79,7.53-8.77,12.95-10.06,1.21-.29,2.46-.45,3.73-.45h43.46c5.97,0,11.47,3.44,15.07,8.13.59.76,1.13,1.56,1.61,2.38,1.85,3.15,2.94,6.71,3.36,10.34.23,2.1.1,4.14.04,6.24-.04,1.65.34,3.27.34,4.94v26.63h.4Z"/>
                <polygon class="cls-2" points="60.27 104.61 60.27 104.79 60.25 104.61 60.27 104.61"/>
              </g>
              <path class="cls-2" d="M141.7,100.53v.4c-.12.02-.24.04-.36.06-.01-.09-.02-.17-.03-.26.13-.06.26-.12.39-.2Z"/>
            </g>
            <path class="cls-2" d="M118.66,153.9v4.74c0,9.77-7.91,17.68-17.68,17.68v25.65c-22.58,0-43.44-7.42-60.26-19.94,5.04-18.3,18.69-33.19,36.48-40.31,2.68-1.08,5.46-1.97,8.32-2.68v-1.68c.68.43,1.38.84,2.1,1.2.99.51,2.02.97,3.09,1.36,3.21,1.18,6.7,1.81,10.27,1.81v25.71c-8.54,0-15.46-6.92-15.46-15.46v4.14c0,8.54,6.92,15.46,15.46,15.46h0c9.77,0,17.68-7.91,17.68-17.68Z"/>
            <path class="cls-2" d="M138.46,116.16c-1.21,2.02-2.74,3.92-4.57,5.62-4.33,4.04-9.7,9.03-14.08,13.01-1.04.94-2.16,1.8-3.36,2.56-.68.43-1.38.84-2.11,1.2-3.99,2.05-8.6,3.17-13.36,3.17-3.57,0-7.06-.63-10.27-1.81-1.06-.39-2.1-.84-3.09-1.36-.72-.37-1.42-.77-2.1-1.2-1.2-.76-2.33-1.62-3.37-2.57-4.37-3.98-9.75-8.97-14.07-13.01-.66-.62-1.29-1.26-1.86-1.93-.25-.27-.48-.55-.7-.83-.3-.36-.58-.74-.85-1.11-.1-.13-.19-.27-.29-.41-.23-.32-.44-.65-.65-.98-.01-.01-.02-.03-.02-.04-.11-.17-.21-.35-.31-.52-.52-.88-.97-1.78-1.36-2.7-.14-.33-.28-.67-.4-1.01-.02-.06-.04-.11-.06-.16-.06-.16-.11-.31-.16-.47-.07-.19-.12-.38-.18-.56-.06-.19-.11-.39-.17-.58-.05-.19-.1-.37-.14-.56-.1-.38-.18-.77-.26-1.15-.04-.19-.07-.39-.1-.58-.03-.19-.06-.39-.09-.58-.02-.17-.04-.33-.06-.5-.02-.13-.03-.27-.04-.4-.06-.64-.1-1.27-.1-1.92l-.02-.18c-.95-.01-1.89-.34-2.71-.81-2.05-1.18-3.45-3.21-4.67-5.24-1.7-2.81-3.21-5.76-4.09-8.92-.88-3.16-1.08-6.57-.18-9.72.23-.8.54-1.6.99-2.3.89-1.38,2.33-2.31,3.93-2.76-.75-4.05-.96-8.26-1.12-12.3-.08-2.12-.05-4.23.11-6.31.02-.23.04-.45.06-.67.02-.22.04-.45.07-.67l.06-.58c.02-.19.04-.38.07-.58.1-.77.21-1.54.35-2.3.07-.38.14-.77.22-1.15.94-4.57,2.59-8.99,5.1-12.94.38-.59.77-1.18,1.19-1.74.01-.01.02-.03.03-.04,2.51-3.08,5.79-5.3,10.01-5.84,1.01-2.91,2.98-5.4,5.45-7.26,0,0,.01,0,.01,0,1.04-.59,4.5-2.43,5.47-2.86-4.35,3.94-4.36,11.92-3.6,17.35,1.26,8.89,6.77,16.59,14.77,20.66,9.95,5.07,21.79,3.66,32.3,6.81-2.19-.66-6.79.8-9.01,1.37-2.75.7-5.41,1.63-7.92,2.96-4.22,2.24-6.37,6.07-6.39,10.75-.02,3.07.04,6.15.1,9.23.06,2.99.12,5.99.12,8.98,0,7.64.02,15.27.02,22.91v5.18c0,7.81,8.09,13.17,15.18,9.88.11-.05.21-.1.31-.15.72-.37,1.43-.77,2.11-1.2,1.2-.76,2.33-1.62,3.36-2.56,4.37-3.98,9.75-8.97,14.08-13.01.88-.83,1.7-1.7,2.44-2.6Z"/>
            <path class="cls-10" d="M100.98,56.07v.83c-.01-.28-.01-.55,0-.83Z"/>
          </g>
          <path class="cls-1" d="M100.98,56.07v.83c-.01-.28-.01-.55,0-.83Z"/>
        </g>
      </g>
    </g>
  </g>
</svg>